# xmcd
#
# Track frame offsets: 
#        150
#        17192
#        39347
#        51772
#        72113
#        89781
#        102530
#        117070
#        128067
#        143880
#        175448
#        191399
#        202214
#        217691
#        238131
#        273968
#        286858
#        307658
#        320610
#        338228
#        345316
#
# Disc length: 4795 seconds
#
# Revision: 0
# Processed by: cddbd v1.5.2PL0 Copyright (c) Steve Scherf et al.
# Submitted via: ExactAudioCopy v0.95b4
#
DISCID=3612b915
DTITLE=Fleetwood Mac - Then Play On (UK version extended)
DYEAR=1900
DGENRE=Blues
TTITLE0=Coming Your Way
TTITLE1=Closing My Eyes
TTITLE2=Fighting For Madge
TTITLE3=When You Say
TTITLE4=Show-Biz Blues
TTITLE5=Underway
TTITLE6=One Sunny Day
TTITLE7=Although The Sun Is Shining
TTITLE8=Rattlesnake Shake
TTITLE9=Searching For Madge
TTITLE10=My Dream
TTITLE11=Like Crying
TTITLE12=Before The Beginning
TTITLE13=Without You
TTITLE14=Oh Well
TTITLE15=Man Of The World
TTITLE16=The Green Manalishi (With The Two-Pronged Crown)
TTITLE17=Black Magic Woman
TTITLE18=Need Your Love So Bad
TTITLE19=Jigsaw Puzzle Blues
TTITLE20=Albatross
EXTD=
EXTT0=
EXTT1=
EXTT2=
EXTT3=
EXTT4=
EXTT5=
EXTT6=
EXTT7=
EXTT8=
EXTT9=
EXTT10=
EXTT11=
EXTT12=
EXTT13=
EXTT14=
EXTT15=
EXTT16=
EXTT17=
EXTT18=
EXTT19=
EXTT20=
PLAYORDER=
